<?xml version="1.0" standalone="no"?>
<!DOCTYPE svg PUBLIC "-//W3C//DTD SVG 20010904//EN"
 "http://www.w3.org/TR/2001/REC-SVG-20010904/DTD/svg10.dtd">
<svg version="1.0" xmlns="http://www.w3.org/2000/svg"
 width="624.000000pt" height="544.000000pt" viewBox="0 0 624.000000 544.000000"
 preserveAspectRatio="xMidYMid meet">

<g transform="translate(0.000000,544.000000) scale(0.100000,-0.100000)"
fill="#000000" stroke="none">
<path d="M2465 5099 c-108 -18 -248 -60 -328 -97 -355 -166 -584 -464 -628
-817 -7 -63 -14 -84 -32 -99 -33 -29 -195 -102 -256 -116 -65 -15 -244 -8
-346 13 -38 8 -100 18 -136 21 -56 5 -70 3 -90 -13 -22 -17 -24 -29 -28 -110
-7 -199 74 -387 235 -542 91 -86 158 -130 277 -179 124 -50 276 -81 441 -89
l128 -6 64 -105 c36 -58 62 -110 60 -117 -3 -6 -60 -78 -128 -160 -221 -265
-294 -369 -390 -558 -104 -205 -146 -360 -155 -575 -15 -388 106 -718 357
-971 143 -145 280 -227 484 -294 221 -71 199 -70 1281 -70 898 0 976 1 1054
18 415 90 781 364 1076 807 269 404 428 889 452 1373 10 209 -6 222 -173 142
-215 -102 -380 -141 -568 -132 -172 7 -261 35 -661 201 -251 105 -478 162
-709 177 -83 6 -172 8 -198 5 -55 -6 -61 2 -17 28 59 35 220 200 274 280 141
212 203 457 192 756 -25 676 -422 1124 -1087 1225 -103 16 -362 18 -445 4z
m465 -123 c466 -91 803 -401 916 -843 20 -78 27 -133 31 -264 9 -254 -19 -402
-108 -584 -87 -177 -226 -318 -446 -451 -64 -39 -121 -78 -127 -86 -15 -25 1
-67 30 -74 14 -4 67 0 117 7 57 9 172 14 302 14 192 -1 220 -3 326 -28 154
-36 278 -79 490 -170 340 -146 465 -179 674 -180 183 0 375 41 549 118 l56 25
0 -28 c0 -45 -29 -281 -45 -366 -94 -495 -343 -985 -661 -1301 -244 -243 -500
-382 -784 -425 -54 -8 -348 -10 -1040 -8 -939 4 -967 5 -1050 25 -462 114
-739 379 -856 820 -35 133 -45 392 -20 528 47 248 172 491 403 781 76 95 196
238 214 254 24 22 59 81 59 100 0 19 -72 149 -147 266 -12 19 -9 28 36 96 27
41 52 84 55 94 4 14 -15 54 -62 129 -149 239 -193 343 -218 509 -12 81 -13
121 -4 209 17 176 69 307 175 448 148 198 410 350 680 394 108 17 342 13 455
-9z m-1420 -1055 c0 -49 47 -214 89 -310 22 -50 64 -130 93 -176 29 -47 60
-96 68 -109 13 -23 12 -28 -25 -82 l-39 -57 -156 6 c-169 5 -251 22 -383 77
-98 41 -158 81 -233 156 -106 106 -172 245 -182 383 l-5 74 39 -6 c21 -3 80
-13 129 -22 181 -34 395 -6 535 70 59 32 70 31 70 -4z"/>
<path d="M2125 4165 c-110 -55 -134 -194 -49 -279 85 -85 219 -63 274 45 73
141 -84 305 -225 234z"/>
</g>
</svg>
